/* XPM */
static char *ac37920c83f146678f5a2017c4b95a20Khzm7j4vYSUQLepa[] = {
/* columns rows colors chars-per-pixel */
"32 32 5 1 ",
"  c None",
". c #1F0F01",
"X c #261301",
"o c #002806",
"O c #035B10",
/* pixels */
"                                ",
"                                ",
"                                ",
"                                ",
"                                ",
"                                ",
"                                ",
"           OOO                  ",
"         OOOOOOOOOOOOO          ",
"       OOOOOOOOOOOOOOOO         ",
"     OOOOOOOOOOOOOOOOOOO        ",
"    OOOOOOOOOOOOOOOOOOOO        ",
"   OOOOOOOOOOOOOOOOOOOOO        ",
"   OOOOOOOOOOOOOOOOOOOOO        ",
"   OOOOOOOOOOoOOOOOOoOoO        ",
"   OOOOOOoOOoooOOOOooooo        ",
"   OOooOoooooooo..oooooo        ",
"    Oooooooooooo.ooooooo        ",
"     ooooooXXooo..oooooo        ",
"       oooooXXo..oooooo         ",
"          ooooX.oooooo          ",
"              X.                ",
"              X.                ",
"              X.                ",
"              X.                ",
"              X.  .             ",
"              X....             ",
"              ...               ",
"              ..                ",
"              ..                ",
"              ..                ",
"              ..                "
};
