/* XPM */
static char *_185e82ed7ae4012957682c031b368b14EWfC8tBrFfkGodT[] = {
/* columns rows colors chars-per-pixel */
"128 128 15 1 ",
"  c None",
". c #111C16",
"X c #1C1817",
"o c #10141A",
"O c #053D06",
"+ c #38281E",
"@ c #1B2633",
"# c #4A3922",
"$ c #146304",
"% c #716034",
"& c #27394C",
"* c #4ED505",
"= c #C9F40C",
"- c #998846",
"; c #DEC8A6",
/* pixels */
"                                                                                                                                ",
"                                                                                                                                ",
"                                                                                                                                ",
"                                                                                                                                ",
"                                                                                                                                ",
"                                                                                                                                ",
"                                                                                                                                ",
"                                                           ==                                                                   ",
"                                                         ***= =** *                                                             ",
"                                                       **OOO**OO$OO**                                                           ",
"                                                        OOO$O**$*$==$**  =$                                                     ",
"                                                      *O$OOO$$$$***==$$===O$$                                                   ",
"                                                     *OO$OOO*$===$*$*=$$O**                                                     ",
"                              *  ==   ***           *O$O$O*OO===$$$*****$**$$                                                   ",
"                             *** ** **O*=  **        O$O$OO*O**$$$$$$****=*$==$           .$*  ***                              ",
"                              ***$===OO==OO==* *   * O$O$OOO**$$$$=$$**=*==*$=          $=$O$$*****                             ",
"                           ****$O=====O=$==*$$$*** **O$$$OOO$$$*$===$$$==*==**=$      $===O=$$*==$* *                           ",
"                          O *OO.$==$$$$O$$=$$$$=OO**OOO$$**O$$$*$====****===**$      $$=OOO$$==$=$****                          ",
"                           *OOOO$$O$$$O=$**=$$==O$O$$.OOOOO$$$=$***=$$***==$**$    $$==OOO*$$==$**=*$*                          ",
"                        OOOO===$$$O$$$=$$*O$*=$==$OO..OOOOOO$==$$***$$*$*******$  $$==OO*$**$*$$*===$*=                         ",
"                         OOO=$$$$$O$*$$$$*O$*=*$==$O..O$$OO*$==**=$$$**=$*$*===$ $$OO=OOO==****=**==$$=                         ",
"                       OOOOO$$O$===O*==$=*=$$$$$$=$=....$$*O$$$$$=$$$$**=**$===$$$OOOO=O=$*$*******=*$=*                        ",
"                        OOO.OO$====O*=======$$$=$$$$==..OO*OOOO$$$$$$$$****$$*$$$.$$OO$$==O*$*=*$*==*$==                        ",
"                       OOOO.$O$=$$$=*$$=====$*==$==$=..$.O*OOO$$***$$$=$$$*$$***$$$==OO$$==*$$*=$****=$=                        ",
"                       OOOO$$O=$***$$$==*===****$===......O$OOO$$$*$$$=**$$O$$$$$$==OO.OO$O$**$$***=*=$$$                       ",
"                      .O..OO$$=$$$===$O$**==$=**=$=$$$.$..O..OO$*$$**$$$O*O$$O$==*$OOO.OOO$O$$O$$*$$===$ $$                     ",
"                      OO.OOO$$=O$$$$=*$.$*==$$==*$$$$...$$.OOO$$$$*$$****OO$$OO$=*$$OO=.OOOOOO$O$$*$$=$$$$$$$  **               ",
"                      .O....O$$O*OO***$=O**$=$**$*$$$$.....*$OOO$OO$O$OO$$O*OO$O$=*$O=$$.$OOOOO$O*===$$$=$*.$$$****  $          ",
"                     OOOO..OO$O.$**$$*$$=***==$$$$*$$$$.@@.*.OOOO*OOOOOOO$OO*O$$$O$**$$$$OOOO*OOOOO=$$$$$$***$=*=*$**           ",
"                     .OO..$O.$O$$$$*$=$$$$****=$$$$$$....@.*..OO$*OO$$$OO$OOOOOOO$$$$*$$$.*OO*O$OOO=$$$$$$$$$$$=*==**           ",
"                      ...O.O.$$O$$$==$***$$**=$$$$==.....O.$$.$O.OOOOOO$$O$OO.O.$$$$$$*$*O*$$$*$$$O$$OO.$$$***=$$==$***         ",
"                      .....OOO*$OO$==*$$=$$$$$==$.$$==$$$$$$*$**...OOOOOO$$$O.OOOO$OO$$**$$O$**$$$O$$OOOO$$$$$**$=====*         ",
"                      .OOOOOOOO$OO$$****=$$*$$.OOO$OO$$==$$$==$$*=.O.*.OOOOO..OOO**OOOOO$$$==**$==O*$OO$O.$$$***=====*=         ",
"                     ....O.O*.OO$OO$$$**O$$*OOOO**$O$$$===$$**==$*$$..*.OOO.OOOO*.OOO$$=O=*===$$==*$**OO.*$$$$$$$**=**          ",
"                    .........**O$$$$$$$**OO*OOO*$$**$$$$==$*==$$**=O*.*...$OOO$$*OOO$$$=$$$==$*=====$$$$O*$OO*=$***==$          ",
"                      ....O..OO.*OO$$OO$$..*O.O*****$==$$***===$$*=O=*.*..$..O.$OO*O$OO=$=$=$=====$$$=$$OOO$O$=$***==           ",
"                       ....OOOO.*OO...OOOOOOOOOO*$$=$$$$$$********$$$.**....OO*OO$$**$$***O=$*====*$=**$$.OO***$$$==**=         ",
"                       .@@.O........OOOO...*OO$O*$$$$=$$$$**$**==*$$$=.*...OOOO*O*$**$OO*=O$$**$**====**=OOO$$$$$$=$**=         ",
"                       ...@..O.O...OOO.O..O.OO$O$$$====$**===****$$===*$..OOO.OOO=O$$.$O*=**$**=***====$==.OO*$$$$=$$*=         ",
"                       .........OO..OO..O.OO$$O$$$$O$==$*$=**==**$$$==$*$..OO..OO***$.$O$**=$***$$==*$*$O.$OOO$$$**=$$          ",
"                       . ....OO.OOOO...OO.OOO.$O.$$*===$$*=$$===***$==$**....OO*OO$**O.$.OO==*==***$==*$=$O$O.OOOO*=*           ",
"                         ..o...O..*..O.OO.OOO.$$..$$*$=$$$$$==**$*$$=$$$*..@..OO.O.$**.$OO****$****$==**=OOOOO.OOO***           ",
"                         ..oo..O.O...O..OO.O$.$OO.O$$**$$=$$=$$**$**=$$$.$...OOO.*O$$*$O=..***$$**$$$$$===OO.O..O** *           ",
"                       ....@@@..O..OOO...OOOO*$O$OO$$$**=*$$$$$====**$$O....O.*O.O**.O$*O$*$$*$$$****$O==$*.OO..*               ",
"                    ..  ..@..@..@.....O..OOO.$$$**$$$$..=*=$$$$*===$*=$$.@.OO.*OOOOO.$O$*$@$$$$O$$$***$*==$$OO$  $              ",
"                     . .........@@ooO.O...O..OOO$.***$$$**=*OOO**=$$==$O...O...OOOOO***$*=$$=OO***$$*=$$*=O$$OO$**              ",
"                    ....O......O..*o...O...O.OOOO..$*$**$**=$O$*****=$$OO......O...OO**$$**O$==**==***=$==O$$OO$**$             ",
"                    ....OO.OO.......@@..OO..OOO**O..O$O*$$**$=O*$$$*$$$OO.OOOO.OOOOOOO**O$$OO$$O*==O*OO*OO$$*$=$$$              ",
"                     .@.OOOOOOO.O..........OOOOO**OOO$O$$$O$$$$$$OO$$$OO.O.OOO.O.OO.*O$OOO*$$O$$$****O$$O$$O$*=$=$$             ",
"                    .O@.OO.OO$OOO..O..@@...OO.O.OOOO$OO$$$$***$$O$O$$$OO.OOO.....OOO*OOO$O**$$OOOOO*==OO..$=$$$*==$             ",
"                   .......O$$$O$OOOO....@oO.OO.O.O..$$$O$$.$*O.$$O.OO$OOO.O.$..OO...*OOO*OO*.O..$$OO*=O=.$$=**$*$=$$=           ",
"                   .......O*$$$$O==OO.O.....O.OOO.OO.$**$OO$OO.*$@..OO*OO.OO$O*.OO...O.**..O$..O$*O$**=$$=$=****=$$.=           ",
"                  ..@@.O.$O*$*$$O===OO.OO...O..OOOOOO....OOO$$..**O.$OO*O..$O$*..OOO..@**OO.$$*.$$.*$$O$$**$$==**==$=           ",
"                   .@@.OO$$$*$*****=OO**........O..OOOOO*$$$O$O.O$OO$*OO$$O$OO$$O.O.....*OO.O$*.$O$OO$O$$****==*====$           ",
"                   .@..OOO$$*$=**$$***OOOOO..OOOOO..OO*OO*OOOOO.OO$$$O$$$*$$$***$..O..O.*O..OO$.OOOOOOOO*$*$****=$$*$           ",
"                  ..O..O.O$$$.$=**$$*$O**OOO..OOOOO.O$.*O**OO.O..O..OOO*$==$$**$*$$.*...OOO.O.$O...OOO*$*$$$**$*$$$=$           ",
"                 ..oo..O.OO..*..$$*OOO$$*.OOO..OO$OOO***OO.*O.....OO$$OO**==$O$*$O$O**...O..OO.......OO****$$===$$$=            ",
"                 ...oO@.O.OO.*O.*$$*OO$O..OO.OOO*$*$$O*.OOOO.*....OO$*OO=$==*OOO..O*$*$..OO..OO..OOO..O.$**$$**=$*=*            ",
"                  ....@o.O.OO*OO$OOO.$OOO..$O$OO$$=$$$$$$O**.*@.@..O$$*===$$=OO==O.O*$.....O..@..OOOO..O.OO*$$*==*$*            ",
"                  ..@@..@O..O*OOO$*=.$OO.*O.O$$*$$$*===$$$O*O.....O.O$$**=**====$$**=$$$$$....OOOO..O..O.OO**$$=$*$             ",
"                   ..@..@......O*OOO$$OO...O.$$*.=**=*====$OOO......O$OO=***==$*=$$*==$$.OO@@....O..OOOOO.OOO$$$O*$             ",
"                  ....oo&.O.O$$...*O$..O.@.O.O$**.*..*$$=$$$O.O..OOOOO*O$=$**$====*$*=$O.OO..OO.OO$.OO....OOOOO$.               ",
"                   .oo.o&@...O$$...OOOO....O.O$$**$$*$***$**OO.O@...OO.*$$$=*=$$*==$$O*OO.O*OOO..*=..*O.O..OOO.**               ",
"                   .@@...@@.OOOO$$$...*O...OOO$$$***$..$$=$$$O.....@OO.O$O$$*$==***$O$$$...O@.OO$$*=.O*...O...  *               ",
"                   ..&&..o@..O..O.OOOO...O.OOOO..$$$.$$*.$$$$OO.....OOOO$O$O**$=O**$OO$O.OOOO$$$$$**$O.O.....*.                 ",
"                    ..&&o@o.OOO..O*OO...ooO...OO.O$$$$OO*$$$OOO..O..O.OO.**$$***O$$$$OO...OO$*$$=*==$OOOOO.*                    ",
"                    . .@o.@@.@.O..*OO.@@.o......OO..OOOO$$...$.OO.O.O.OO.OO*OOOO$$$O.....OOO$$*$**==$$OOO$                      ",
"                      .@...@.@@.O.*..O.@....@@.OOO$OO..OOO...OO.O.O......OOOOOOOO$..oo..OOOOOO$$****=*$$O$                      ",
"                      ..o.o@@..@@..oo..@.O.*..O.O..OOO.OO...O..O.O...@@.OO.OOOOO...@.o.O.O..O$=$$$=**$=O=                       ",
"                        .@.o&&@.@o@..OOO.OOO.....O...OO..O**OO=.*O...O..O.O.....o@...OO.O.OOOOO=$$$$$$=$=                       ",
"                       ..o.@&.oo@..@...O$OO$OOO..OO....@..O..$$$*OOO.....O...@oooo@.....O..OOOOOO$$O$$=                         ",
"                       ....o@@.@@...@O$$$OO*OOOO..........OO$$*$$$O.O.O..Oo.&@ooooo@....O.O..OOOOO$==$.*                        ",
"                          o....@OO.O@.$**$$*OOO*O..oo..OO..OO.*===O=OOOO.O..&@ooo@  @.....OO.OOO.OOO$                           ",
"                           o.o@O.OOO$$$.$$OOO$O*O...o......O$$*.*.$**$OOOO.&@ooo   Xo@@.......O.O..O$*                          ",
"                            .@@...O@O..$$*$$O*O.O..........*$..***$$$*$OOo &@o@   X+XXXo@.....OOOOO.*                           ",
"                           o.oO@.@.O.O*OO*O.$OOO......@...O..O$.$*.$..OOo..&oo    XX+X+XXoo....OO$  *                           ",
"                           o..o&@oO.OO*OOOOO$OO*.O..O.@...O..$$O$.$OOO.Oo..&o@  XX+++++X+XXooo.o.                               ",
"                            o.@&....o@*.OOOOO......OO..@....$O.O$.....O.  &@oo X++##+++++XX  ..                                 ",
"                            o.o@&.@.O...O.o....o@..O...&&....O$OO.O..Oo  &@o@@X+#####++XX                                       ",
"                              oo&.@@.O@@.o....ooo@@@@...&...........oooXXXXXXX+###+#++X                                         ",
"                              oo&o@O.oo@....@@oooo   @@@o@@@@@o@..ooXXXXX+++++##+#+++                                           ",
"                                 oo ......o&&@ooXXoo   &@oooooooo@XX++XX+X+####+#++%                                            ",
"                                    o &ooo&&@ooXX+XXoo &oo o@oXXXX++X+XXX++###%+++                                              ",
"                                      o&&&&@ooXX+++++o  &o@ oXXXX+X+++X+X++##%-#+%                                              ",
"                                       o&&&@ooXXX+X+X+o &@o  oXX+X++%+XX++####%+%-                                              ",
"                                        o@&&@ooXXXXX++o  &o  oXX+++#+#X+X+###%+#%-                                              ",
"                                          o&&@oooXoX++#o &@@ oXX+#+##-XX+++#%%++%-                                              ",
"                                           o&&@oooXXX++o@@@oo oXX+#+-%X++++##%#+#-                                              ",
"                                            o@&@oooX+X+oXX@ooo@X+++##--X+++#-##+#-                                              ",
"                                              o&@ooXX++XoXo@oooXXX+#+%%X++++#-%+#%-                                             ",
"                                               o&@ooXX+XoX+X@@X+X+++#%#-X+++##-#+#-                                             ",
"                                                @&ooX++Xo@ooXoX@XXX+##%%-++++%--%#%-                                            ",
"                                                o&@ooX+Xo&&@oX+XoX+++##%--+++##--%#-                                            ",
"                                                o&&oXXXXXo&&@ooo@oXX+++#%--+++%%---%                                            ",
"                                                @&&ooX+XXo@&&@ooooX#+++##%--#+#-#--;%                                           ",
"                                               o&&@oXXXXoXo@&&@&@@oXX+++#+%--+##%%--;%                                          ",
"                                               o&@oooX+XXXooo@o@&o@oXX+++#+%--#+#-%--%                                          ",
"                                               @&@oXX+++XXoXo&ooooo@oX++++%-#--###%#-;%                                         ",
"                                              o&&ooXoX+X+XXo&@oXXooo@oXX++#%%---##%%#-%                                         ",
"                                              o&@oXX++X+XXo&ooXXo+Xoo@oXX++#%%--#+##%-#                                         ",
"                                             o&@oooX+X++Xo@oX+o#X+@@#o@@XX+###---#+%#-#                                         ",
"                                            o&@ooXX+X++XX@oXX#X#+@oXXo#ooX++#%%--###%-%#                                        ",
"                                            o&@oooX+X+++ooXo+X++@XX#+X#o@XX++#%%-++##--#                                        ",
"                                            @&oooX+X++XX@XXXX+o@oX+++X#oo@XX++#-%-##%%-%#                                       ",
"                                           o&@ooX+X+#XX@XX+X+o@XXX++X#ooXooX+++#--#+#%%--#                                      ",
"                                         o@&@ooXX+X+#X@XX+#++@X+++X+X#oXXX@XX++#+--###%%--#                                     ",
"                                      oo@&&@oooXX+X++@XX+X++oXXX++#+X#XXX+ooXX++#%-+###%%--#                                    ",
"                                   oo@&&&@o&ooXoX+X+@XXX++#X@XX++++##oX+X+XooX++##%--###-%%-##                                  ",
"                                    o&@@o&@oooX+X+X@X#X++#+oXX++X+#+#X+X+X+XoXX++##%--%##-#%-%##                                ",
"                                     oooo&oooXXX++@XXX++#++oXXX++####XX++++X@oX++#+--%--%#%##--%###                             ",
"                                       o&&ooXXo++XX+X++##+o@oX+#+#%-#++X+#++XoXX++#+%%%--%++###---;#                            ",
"                                     oo&@ooXo+XXXX++++##++ooXXX++#--%X+++###+X@XX+####-%-;%-++###---#                           ",
"                                   o@&&@ooXXXXXo+##+++#+++ooXo+++#%-%+X+###%++XoX++#+#%---;%--+#####-#                          ",
"                                 oo&&@oooXooo@oX++##+##+++o@XX#X++#-#X+++##%-+X@XX++###%%--;+%-++++++                           ",
"                               o@&&@@ooXXoo&&oXXX++###+++oo@ooX+++#%#XX++###-%+XoXX+#+#%-#%-+%%-++                              ",
"                              oo&&&&&@oooo@oooooXX++##+++o@@oXXX+#+##XXX++##%-++X@X++####%%%+#-%+                               ",
"                               ooo@@@@@ooo@  o&@oXX++X++#  @ooX++++##XX+X++##--+XoXX+++###-#++#-#%                              ",
"                                ooooooooo@@   o&@X#X+++#    @oXX+#++#ooooX++#+-%+X@X++#+#+#-++#+-#%                             ",
"                                               o&XX#XX#      @X+X++#      o+##%-+XoXX++#+###-++#+##X                            ",
"                                               o@oXXX+#       @X+++#       o+##%%X@oXX+#+##%%++++#XXX                           ",
"                                                @oXXX+#       @XX++#        o+###XooXX++#+##-%+XXX                              ",
"                                                @ooXX#         @XX+#         o+###X@oXX++#+##-+                                 ",
"                                                @ooo@          @XX+#         o+###+XooXX++#++#-+                                ",
"                                                 @@@           @XX+%         o+###oooooXX++####%+                               ",
"                                                                @X+--         o++o    ooXX++#+##%%%                             ",
"                                                                 @@#%          oo      oooX+++#+#%%%                            ",
"                                                                     %                  ooo+oo+o+++                             ",
"                                                                                                                                "
};
