/* XPM */
static char *_da0469e2e644819b84b42485aede78eDyrsveXCofyOGjVy[] = {
/* columns rows colors chars-per-pixel */
"32 32 17 1 ",
"  c black",
". c #57320B",
"X c #723D03",
"o c #706035",
"O c #665F4C",
"+ c #9D2F03",
"@ c #D03207",
"# c #83531F",
"$ c #A45205",
"% c #D0512E",
"& c #F48E00",
"* c #F4A331",
"= c #FDFF2E",
"- c #FDFF55",
"; c #FEFF7C",
": c #FCFF9E",
"> c #FDFFC6",
/* pixels */
"                     @%      @  ",
"           @        @%    @@@@  ",
"          @%@           @@%@@   ",
"         %&@           @%@@@    ",
"         @%           @%%@*@    ",
"             @   @@@@@@@&&@@    ",
"            @%  @%@%@&*&*&%@    ",
"           @%@ @%%&&&=&**&@%    ",
"           @&@@@&@@&===&&&%@    ",
"          @&*&*&*==;=;=*&@@     ",
"         @%&@*&*=;;;==&&&%      ",
"         %@&&**&==-;=&*&@@      ",
"         %***&==;;;=&*&@%       ",
"         @*&&==;>;;&&&@%        ",
"         @&*&=>>==&&%@@         ",
"         %*&=>:>==*&*@          ",
"        O@&&>>:>>=&*&%          ",
"      OO#....>:>:#X&@@O         ",
"     OO#..+.#>>:...#@+Oo        ",
"     o##X$....>>.#..$$+O        ",
"    oOO#+$.X.........++Oo       ",
"   OoOO++#..#.#...##.#++OO      ",
"   oOoO+#X#X+#.#+.#.#.#+OO      ",
"   OoOO##XX+$X#.$+#.##X+Oo      ",
"    OoOXX#+$+#X#$$+##XXXoO      ",
"   OOO#X##++#XX+++++XXX#o       ",
"    O#XX#OO+#X#OOoO+###OO       ",
"    oO##OoO#X##OoOoOOOOo        ",
"      OOO OOOOoOO OoO           ",
"              OO                ",
"                                ",
"                                "
};
