/* XPM */
static char *b9c62baa797c4083dbabbfdd40c460427bEEGdnBFxn0fIJI[] = {
/* columns rows colors chars-per-pixel */
"50 82 180 2 ",
"   c None",
".  c #6E3E38",
"X  c #713E37",
"o  c #723E3A",
"O  c #154636",
"+  c #164F36",
"@  c #154639",
"#  c #164D3C",
"$  c #165236",
"%  c #17543D",
"&  c #165A3D",
"*  c #156627",
"=  c #146C2D",
"-  c #0F772F",
";  c #0D792D",
":  c #11732E",
">  c #147E29",
",  c #156535",
"<  c #136C35",
"1  c #15643C",
"2  c #136B3B",
"3  c #0E7635",
"4  c #0B7B34",
"5  c #0E753B",
"6  c #077F3D",
"7  c #0B7B3B",
"8  c #117234",
"9  c #11713A",
"0  c #107B3B",
"q  c #6F433A",
"w  c #754137",
"e  c #74433B",
"r  c #7A453E",
"t  c #744A3E",
"y  c #164E41",
"u  c #175543",
"i  c #165B44",
"p  c #175549",
"a  c #165C4A",
"s  c #155E50",
"d  c #156242",
"f  c #126C42",
"g  c #156349",
"h  c #116D48",
"j  c #0D7442",
"k  c #077E45",
"l  c #0A7B42",
"z  c #077F49",
"x  c #107141",
"c  c #6F4C48",
"v  c #734341",
"b  c #7A4742",
"n  c #754C45",
"m  c #7A4C44",
"M  c #754D48",
"N  c #7A4D49",
"B  c #765144",
"V  c #7C5245",
"C  c #76524A",
"Z  c #7B524A",
"A  c #804E46",
"S  c #82554C",
"D  c #81584C",
"F  c #865D55",
"G  c #8B5C55",
"H  c #8B5F5A",
"J  c #8B6157",
"K  c #8C635C",
"L  c #8E695E",
"P  c #92635B",
"I  c #98695D",
"U  c #8C6662",
"Y  c #946561",
"T  c #946D61",
"R  c #997569",
"E  c #A47D6E",
"W  c #07822F",
"Q  c #09812E",
"!  c #05892F",
"~  c #078234",
"^  c #0A8134",
"/  c #048B35",
"(  c #088C35",
")  c #06833C",
"_  c #0D823B",
"`  c #048C3B",
"'  c #0A8B3D",
"]  c #138C3D",
"[  c #039235",
"{  c #0A9035",
"}  c #059833",
"|  c #03933B",
" . c #09943B",
".. c #049A3E",
"X. c #0B9D3E",
"o. c #109132",
"O. c #119239",
"+. c #07A23E",
"@. c #058341",
"#. c #0B8441",
"$. c #048B43",
"%. c #0B8C43",
"&. c #07864B",
"*. c #028B49",
"=. c #0B8948",
"-. c #148541",
";. c #148E47",
":. c #049541",
">. c #0A9342",
",. c #049B42",
"<. c #0B9C44",
"1. c #00924C",
"2. c #0B9248",
"3. c #039D4B",
"4. c #0B9E4A",
"5. c #119545",
"6. c #14954A",
"7. c #159F4A",
"8. c #048450",
"9. c #029D51",
"0. c #0B9B53",
"q. c #139A59",
"w. c #02A244",
"e. c #09A446",
"r. c #05AB44",
"t. c #0DA947",
"y. c #04A34A",
"u. c #0CA34B",
"i. c #06AA4C",
"p. c #0CAC4C",
"a. c #10A346",
"s. c #10A748",
"d. c #12AB4D",
"f. c #19AB4F",
"g. c #03B04F",
"h. c #0EB14E",
"j. c #12B24D",
"k. c #00A352",
"l. c #0AA554",
"z. c #07AB54",
"x. c #0BAB52",
"c. c #08A45A",
"v. c #0DA75A",
"b. c #0BA35D",
"n. c #0DAA5B",
"m. c #11A651",
"M. c #12A556",
"N. c #17A656",
"B. c #18A551",
"V. c #1FA251",
"C. c #15A853",
"Z. c #11AA56",
"A. c #1BAF50",
"S. c #10A559",
"D. c #17A95B",
"F. c #1CAD5B",
"G. c #1AAE5C",
"H. c #0FB051",
"J. c #0AB155",
"K. c #05B45C",
"L. c #0FBA5B",
"P. c #10B051",
"I. c #10B451",
"U. c #13B254",
"Y. c #14B255",
"T. c #15B654",
"R. c #1CB252",
"E. c #18B156",
"W. c #1DB754",
"Q. c #1DBA56",
"!. c #14B259",
"~. c #12B959",
"^. c #1BBF59",
"/. c #1ABA5E",
"(. c #1BBF59",
"). c #28BC5D",
"_. c #12AB62",
"`. c #10B264",
"'. c #1FB862",
"]. c #1FC25E",
/* pixels */
"                                                @ %                                                 ",
"                                                % i                                                 ",
"                                              s u u g                                               ",
"                                            i % W.0.i i                                             ",
"                                            % u...h.w.u                                             ",
"                                            i w.i.G.d.u                                             ",
"                                          # u /.w.A.x.& i                                           ",
"                                        i u 9.d G.D.y.r.p u                                         ",
"                                        a t.f S.y.S.j.P.y.#                                         ",
"                                      d g r.u.3.Z.y.W.h.x.i y                                       ",
"                                    i u ,.f g 3.K.'.T.R.,.N.& u                                     ",
"                                  % 1 r.f x.t.u.:.p.Z.J.4.l.t.u u                                   ",
"                                  u M.k.d.4.N.f 0.u.t.4.| j.3.s.u                                   ",
"                                  + f q.i.d d.u.z...,.f.!.~.j.x.u                                   ",
"                                i y u.d _.G.x.0.w.i.<.V.+.h.h.].u u                                 ",
"                              # u w.X.9.Y.*.f ,.l.c.).'.:.x.C.P.`.u &                               ",
"                              & i.p :.d w.L.l.c.7.H.1.i.4.i.p.s.# n.u                               ",
"                            i x.+ & ].f C.r.$ @ b.M.+ g p.l.T.3.u # 9.%                             ",
"                            % i p u d x.r.u u % b.M.+ i u w.x.<.i u u a                             ",
"                                  y g.p.# + d a % d u ` u + U.!.u                                   ",
"                                % % | i u d d ( % p 1 1 i % a u.d $                                 ",
"                              O i & u 1 ` 1 ( 1 1 u / d t.$.d i p % #                               ",
"                            u % d & :.d d ( @.;.1 ) +.O.d ) 1.~ <.<.p 1                             ",
"                        a % | ` ` ) [ @.@.d / @.@. . .l.` / u.k 7 4.,.e.g u                         ",
"                    i & d / 1 ) 1 ' d l 1 4 ` a.d ^ e.^ ( ` ) u.' $.t.:.e.` & &                     ",
"                  g y ) i & i <.` z [ ` d =.*.*.! ] ' u.) 7 ~ ,.) ~ X.u i u >.u d                   ",
"                  u i a p u ` *.d & & [ k ` 1.*.~ e.` ,./ ` ! ` s.4.' &.u u i u u                   ",
"                        % a ' 1 | *.` $.& $.d ` l 4 ) e.$.% @.' $.%.<.<.d i                         ",
"                        i o.l d | 2.g % u $.4 &.>.) u.%.~ a y u ` $.u.3.) d                         ",
"                      u # 1 >.) $.u i p p 1 -.' 2.~ / f.) & u $ y ) $.:.u.u i                       ",
"                    d # #.` $.% & u a y ' 7 ) %.` 6.e.u.4.*.+ a % u d / ` y.u g                     ",
"                  % u >.5 u $ u 1 d i ] 6 i i ~ @.' k / i t./ # & 7 u i $ #.e.p i                   ",
"                  a p i p % & & 7 # p ) y d % ^ ` y.z y # & ` i u 7 & & d i u % d                   ",
"                      & & i 4 & & u ` & @ 7 u [ / 7.<.i i u @.%.& & 6 | 5 & +                       ",
"                      a 3 & 4 1 % i g u 7 i % i 4 ` & i & ) $ i # i 3 7  .5 u                       ",
"                    & l i f i l & u 7 & & & & u $.~ i 7 2 & & 3 p %  .7 <.4 | u                     ",
"                  i a 9 7 d & j & 5 & & _ & & u p u % 5 7 6 3 & 9 7 ) 6 7  .4 i u                   ",
"                a & l & _ u 5 & 5 5 ^ 5 i @.& 7 i y 3 3 & 7 % 7 :.3 | 7 :.` >.,.7 1                 ",
"              u # 0 3 7 j 2 & h 7 8 7 @.j & ~ % y & 9 7 ,.5 5 2 k | 2 j 4 5 7 7 >.% u               ",
"            u i j i i % 7 i 3 2 7 @.j 4 7 & 5 i l ^ 2 4 | 9 7 ~ 7 | k ,.4 5 a i a | u u             ",
"        a i y i u % % 4 & l / 4 2 & 5 d : i 9 8 & z 5 4.4 7 ..5 7 2.5 <.&.` > & i u i i d i         ",
"        a & i     p i f & 4 0 / & 5 & j 7 7 _ d 7 j j :.3 2 7 2 3 0 | 2 :.7 3 & %     d p i         ",
"                  i l 7 ) 7 7 & d 3 1 j 9 j 7 7 7 ( j ' 4 5 j >.7 6 5 5  ...; 5 @                   ",
"                a y & & 9 2 5 3 x ~ 7 & 9 & 5 & 5 j :.| 7 7 k < ; < 7 j 7 | 5 j u p                 ",
"              # # 7 & 9 7 % % + 9 0 ~ u u u 7 4 9 5 >.3 i u 5 7 <.z # y @.<.:.:.l g %               ",
"              u d 9 j 7 x i a d & 3 4 5 u % u 3 ` 7 9 Q u & 2 5 2.j p u i 7 7 f  .` i               ",
"            % & 3 8 9 u u y i < & 4 5 u & & & j h 9 ,.3 u < p l j ,.; u u i i 9 f 3 i u             ",
"          i # % % a % y 2 u < 7 9 ~ @ + & < u j l ~ { u & & + d l 7 | 7 d 9 % i g 1 k u g           ",
"          i i   u % % 9 & # 4 9 j i a < % & O 5 5 | l i < & & $ # 5 j >.u 1 5 | : u   @ %           ",
"              u # & & 2 i d j x & i & % 8 & u u 9 9 i x % 5 & = # i 7 _ % & , [ < u u               ",
"            % i & & & & i z + % & 8 % & & & = u 5 a O & < 1 f & 3 8 i + k % 5 <  .` p %             ",
"        u & % 2 & , & % a + i 7 3 i : 2 & & & g f a 8 & 7 3 , 2 < & & g u a u 3 ` 3 ,.p # i         ",
"      u u < & & & & 5 u u & & & 2 4 & < & 4 1 i i @ & 3 ; 2 9 , = : - & u u & 9 j 2 1 , $.& #       ",
"  % i # 2 2 a # i & < % , 9 < , 5 2 : 9 & & & % % 2 W 3 < 1 < 2 / f 9 3 1 5 $./ 7 i g @.7 | u u %   ",
"& p u & y u % % 5 1 & < $ & , & < 1 < < 9 & = $ 9 2 0 7 9 < < 5 : < [ < < j 2 < ` 2 # a i i u i % u ",
"            # d & & < 1 % < & & 2 2 & : * 5 2 < x 9  .9 : 2  .3 , : 1 | < 2 1 = | 1 & u             ",
"          # i 9 & & u y 1 3 5 8 8 & : l 8 & , 3 1 < / 9 ' = 8 9 [ f  .` = / a i , j | u i           ",
"        y 1 % 2 % + y & & & & 9 < 1 2 f 9 0 , 1 0 { 2 j < { 8 [ 1 4 < < ` | d p % = 2 | i #         ",
"      # i 0 % 5 & u u 1 5 8 2 8 & < $ ; j 5 0 * < j / f < : ` 1 < u  .2 2 / , u u u 2 :  .% i       ",
"    i i % : y d   % u & & 2 9 u i 9 < 2 5 9 2 ` 2 | j < 7 5 5 9 9 i & l ` 3 < u i   & # ` ' $ %     ",
"  % # x i u u     $ 2 % 2 : i % u l & & 5 3 9 9 1 1 | ` < , [ 1 < $ % i 9 7 ( & &     & u % (.@.u   ",
"u g a u         u u 5 & 3 2 p # # 3 & < 1 & 1 j ` 9  .7 u 9 f / 2 i u & 9 8 [ 8 i %         % y u % ",
"u %             u & , 5 # &   u : < 2 < a & 9 9 9 ` 1 - a u 3 2 | 2 #   i g 9 } { 1             i % ",
"              i # & < a %     # < < < u % q # 7 < :.` & u u u 2 2 2 &     u # 9 2 i +               ",
"            1 % 9 8 & &     i p & < 1 g   Z % ` 5 j | u F N i 2 5 ` + &     u d 2 >.u %             ",
"          p % % u # p       u = 9 a % %   n u 9 5 %.5 u R Z + u i ( 3 O       % % u (.% y           ",
"        u g g u             % 2 j %       v & @ &  .h u I n     u 2 ( i             u u + p         ",
"      p & 1               p u y % %       e e i < f 5 u B M     $ % u & u               i u a       ",
"                        u p & a           r t y 2 ` u i F v         u i s u                         ",
"                        u a             b m e @ + 5 # M G B             # u                         ",
"                        g               M e V n # j y D G N               g                         ",
"                                        r V t U g p i N Z M                                         ",
"                                      X w w A m u % T B N Y m                                       ",
"                                      X v w t F K M A n Z M T                                       ",
"                                    v o n . n V J M M P N M M                                       ",
"                                    e N w N Z Z K N M m G w G L                                     ",
"                                  v v M . v Z n E c n V J N b w K                                   ",
"                                  b   r e n X S M N C w N M   e   T                                 ",
"                                      e t     m n P Z   t K                                         ",
"                                    q M       . n J Y     K                                         ",
"                                                w   e G                                             ",
"                                                      M                                             "
};
