/* XPM */
static char *aa9b340cd2a4416aa94a749a4c5ceb06nN7ENJKijeUwcvSq[] = {
/* columns rows colors chars-per-pixel */
"64 64 5 1 ",
"  c None",
". c black",
"X c #3F2C1A",
"o c #271133",
"O c #443C36",
/* pixels */
"                                                                ",
"                                                                ",
"                                                                ",
"                                                                ",
"                                          ..                    ",
"                                         .X.                    ",
"                                      ...Xo.                    ",
"                               ..    .oXoo..                    ",
"                  ..           .X.  .oXooXX.                    ",
"                  .o.   ..     .Xo..oXo....X.                   ",
"                  ..o...X.      .X.oXoo.   ..                   ",
"                 .oooo.Xo. ..   .XooXo.   ..                    ",
"           ...  .oOOOOXoo. .X.  .oXOXo. ..X.                    ",
"           .oX..OOXooXOXo...Xo...oOOXo..oX.                     ",
"            ..OOXo..ooXOXo..oXo.XoOXXooXX. ...                  ",
"              .Xo.  .ooOOXo.oXooOXXXooXXo..oo.                  ",
"             .Xo.    .ooOOXoooXoOOXXXXXooooX.                   ",
"            .Xo.     ..ooXXXooXXOOXOXXXXXXX.                    ",
"            ...    ..oXOoXXoXoXXOXoOXooooXXX.                   ",
"                 ..XOOOOXOOoOOXoXXoXXXo...oXX..                 ",
"                .XXo..oXXOOOOOOoXXoXXXXo....oXo.                ",
"                ....  .ooOOOOOO.oooXoXXXo.  ....                ",
"                       .oOOXOOX.oOOXoo..Xo.                     ",
"                       .oOOXOOo..XOXo.  ...                     ",
"                       .oOXoXXo..oXXo.                          ",
"                       .oXoOOX...oXX.                           ",
"                       .oOoOX.....oo.                           ",
"                       .XOXOo.....oX.                           ",
"                       .XOOXo......X.                           ",
"                       .OOOO.......X.                           ",
"                       .OOXO.......X.                           ",
"                       .XooO.......X.                           ",
"                       .OOXo......oX.                           ",
"                       .OOOXo.....oo.                           ",
"                      .oOOOXX.....oXo.                          ",
"                      .oOOOoOo...XoOo.                          ",
"                      .oOOOoOX..oXoOX.                          ",
"                      .XXOXoOOo.oXXOX.                          ",
"                      .XOOOOXOX.XXoXX.                          ",
"                      .OOOOOOoo.OOoXXo.                         ",
"                     .oOOOOOOXOoOOoooo.                         ",
"                     .oXOOXOOOOoOXoXXo.   ...                   ",
"                 ... .oOXooOOOOXXXoOXX....XX.                   ",
"                .oXo..oOOOoXOOOXXoXOXXo.oXo.                    ",
"                ..oOX.oOOOXOXooXOOXOXXoooo.....  ...            ",
"              .....XOooXOOXOOOOXOOXXXXooo.oXXoo..oo.            ",
"             .Xooo..XXooOOXOOOOXOXooXoooXXXXXXooo..             ",
"            .Xo.oooooXXoXOXOOOXXOXoXXoooXXXooooX.               ",
"           .o...oXXOOOXooXXOOXoXXXoXoooooXoo..ooX.              ",
"           ....oXXooXXoooXOXXXoXoooooooooooo. ..oX.             ",
"            ..oXo...ooooXOOXoooooooooo...oooX.  ...             ",
"           .oXX.. .oo...OOXoooooooooXX.  .oX.X.                 ",
"           ....   .o.  .XXoooo...oooXXo.  .X...                 ",
"                  ..  .oXooo..  .Xo.oXXo. .oX.                  ",
"                      .Xooo.   .oX...oXX.  .o.                  ",
"                     .Xo..o.   .X.   ....   ..                  ",
"                    .oo.  .o.  ..                               ",
"                    ...   .o.                                   ",
"                           ..                                   ",
"                                                                ",
"                                                                ",
"                                                                ",
"                                                                ",
"                                                                "
};
