/* XPM */
static char *_da23841ead549b5cac41e7234c20a85etxHHVDmiig25kkl[] = {
/* columns rows colors chars-per-pixel */
"120 120 8 1 ",
"  c None",
". c black",
"X c #0F0501",
"o c #331404",
"O c #0A3313",
"+ c #4C1E06",
"@ c #0F4C1C",
"# c #197B30",
/* pixels */
"                                           @@@@@@@                                                                      ",
"                                           @@@@@@@@@                                                                    ",
"                              @@@@@@      @@@@@@@@@@@        OOOO                                                       ",
"                            @@@@@@@@@@@@@@@@@@@@@@@@@OO     OOOOOO                                                      ",
"         OOOOO           @@@@@@@@@@@@@@@@@@@@@@@@@@@@@OOO   O@@@@OO                                                     ",
"         OOOOOOO       @@@@@@@@@@@@@@@@@@@@@@@@@@@@@@@@@OOOOO@@@@OOOO                                                   ",
"         OOOOOOOO    @@@@@@@@@@@@@@@@@@@@@@@@@@@@@@@@@@@@@@@@@@@@@@@@OOOOO                                              ",
"         OOOOOOOOO  @@@@@@@@@@@@@@@@@@@@@@@@@@@@@@@@@@@@@@@@@@@@@@@@@@@@@OOO                                            ",
"         OOOOOOOOO @@@@@@@@@@@@@@@@@@@@@@@@@@@@@@@@@@@@@@@@@@@@@@@@@@@@@@@@O                                            ",
"         OOOOOOOOOO@@@@@@@@@@@@@@@@@@@@@@@@@@@@@@@@@@@@@@@@@@@@@@@@@@@@@@@@O              OOOOOO                        ",
"         OOOOOOOOOO@@@@@@@@@##@@@@@@@@@@@@@@@@@@@@@@@@@@@@@@@@@@@@@@@@@@@@O              O@@@@####                      ",
"         OOOOOOOOOO@@@@@@@@@##@@@@@@@@@@@@@@@@@@@@@@@@@@@@@@@@@@@@@@@@@@@@O             @@@@@@########                  ",
"         OOOOOOOOOO@@@@@@@@###@@@@@@@@@@@@@@@@@@@@@@@@@@@@@@@@@@@@@@@@@@@@O          OOO@@@@@@########                  ",
"    OOOOOOOOOOOOOO@@@@@@@@####@@@@@@@@@@@@@@@@@@@@@@@@@@@@@@@##@@#@@@@@@@@@O        O@@@@@@@@@########                  ",
"    OOOOOOOOOOOOOO@@@@@@@@####@@@@@@@@@@@@@####################@#####@@@@@@@OOOOOOOO@@@@@@@@@#########                  ",
"    OOOOOOOOOOOOO@@@@@@@@#####@@@@@@@@################################@@@@@@@@@@@@@@@@@@@@@@@#########                  ",
"    OOOOOOOOOOOOO@@@@@@@@#####@@@@@@@@##################################@@@@@@@@@@@@@@@@@@@@##########                  ",
"    OOOOOOOOOOOOO@@@@@@@######@@@@@@@###################################@@@@@@@@@@@@@@@@@@@###########                  ",
"   OOOOOOOOOOOOO@@@@@@@@######@@@@@@###################################@@@@@@@@@@@@@@@@@@@@#########                    ",
"  OOOOOOOOOOOOOO@@@@@@@#######@@@@@@###################################@@@@@@@@@@@@@@@@@@#######                        ",
"  OOOOOOOOOOOOOO@@@@@@########@@@@#@######################################@@@@@@@@@@@@@#########                        ",
"  OOOOOOOOOOOOOO@@@@@#########@@@@##########################################@###@@@@@###########                        ",
"  OOOOOOOOOOOOOO@@@@@#########@@@##############################@@@@@@##########@@@@@############                        ",
"   OOOOOOOOOOOO@@@@@##########@@#############################@@@@@@@@@@#########@@##############                        ",
"   OOOOOOOOOOOO@@@@@############################################@@@@@@@@@########################                       ",
"    OOOOOOOOOOO@@@@@#############################################@@@@@@@@@########################                      ",
"    OOOOOOOOOOO@@@@@##############################################@@@@@@@@##########################                    ",
"   OOOOOOOOOOOO@@@@@###############################################@@@@@@@############################                  ",
"   OOOOOOOOOOOO@@@@@@###############################################@@@@@@################################              ",
"   OOOOOOOOOOOO@@@@@@###################@@@#######@@#################@@@@@@###############################              ",
"  OOOOOOOOOOOOO@@@@@@#################@@@@@@@@@@@@@@@@@@@@@@@@######@@@@@@@################################             ",
" OOOOOOOOOOOOOO@@@@@@@############@@@@@@@@@@@@@@@@@@@@@@@@@@@@@#######@@@@@################################             ",
" OOOOOOOOOOOOOO@@@@@OOO###########@@@@@@@@@@@@@@@@@@@@@@@@@@@@@########@@@@#################################            ",
" OOOOOOOOOOOOOO@@@@OOOO############@@@@@@@@@@@@@@@@@@@@@@@@@@@@@########@@@#################################            ",
" OOOOOOOOOOOOOO@@@@@OOOO#############@@@@#@@@@@@@@@@@@@@@@@@@@@@@@@######@@@#################################           ",
" OOOOOOOOOOOOOO@@@@@@OOOO#######################@@@@@@@@@@@@@@@@@@@@######@@#################################           ",
" OOOOOOOOOOOOO@@@@@@@OOOOO########@###############@@@@@@@@@@@@@@@@@@##########################################          ",
"  OOOOOOOOOOOOO@@@@@@@OOOO#######@@@####@###########@@@@@@@@@@@@@@@@@#########################################          ",
"  OOOOOOOOOOOOO@@@@@@@OOOOO######@@@@@###############@@@@@@@@@@@@@@@@#########################################          ",
"  OOOOOOOOOOOOO@@@@@@@@OOOOO#####@@@@@@###############@@@@@@@@@@@@@@@##########################################         ",
"  OOOOOOOOOOOOO@@@@@@@@OOOOOOO###@@@@@@@##############@@@@@@@@@@@@@@@##########################################         ",
"   OOOOOOOOOOOO@@@@@@@@@OOOOOOO##@@@@@@@@##############@@@@@@@@@@@@@############################################        ",
"    OOOOOOOOOOO@@@@@@@@@@OOOOOOO#@@@@@@@@@##############@@@@@@@@@@@@##############################################      ",
"    OOOOOOOOOOO@@@@@@@@@@@@######@#@@@@@@@@@#############@@@@@@@@@@@################################################    ",
"   OOOOOOOOOOOO@@@@@@@@@###########@@@@@@@@@@@##########@#@@@@@@@@@@###############################################@@   ",
"   OOOOOOOOOOOO@@@@@@@#############@@@@@@@@@@@@###########@@@@@@@@@@###############################################@@@  ",
"  OOOOOOOOOOOOO@@@@@@###############@@@@@@@@@@@@@#########@@@@@@@@@################################################@@@  ",
"  OOOOOOOOOOOOO@@@@@############@@#@@@@@@@@@@@@@@@@#######@@@@@@@@##################################################@@  ",
"  OOOOOOOOOOOOO@@@@#############@@@@@@@@@@@@@@@@@@@@@@@@#@@@@@@@@@#################################################@@@  ",
"  OOOOOOOOOOOOO@@@@#############@@@@@@@@@@@@@@@@@@@@@@@@@@@@@@@@@##################################################@@@@ ",
"   OOOOOOOOOOOO@@@@#############@@@@@@@@@@@@@@@@@@@@@@@@@@@@@@@@@##################################################@@@@ ",
"    OOOOOOOOOOO@@@@#############@@@@@@@@@@@@@@@@@@@@@@@@@@@@@@@@###################################################@@@@ ",
"     OOOOOOOOOO@@@@@############@@@@@@@@@@@@@@@@@@@@@@@@@@@@@@@@###################################################@@@@ ",
"      OOOOOOOOO@@@@@############@@@@@@@@@@@@@@@@@@@@@@@@@@@@@@@##################################################@@@@@  ",
"      OOOOOOOOO@@@@@############@@@@@@@@@@@@@@@@@@@@@@@@@@@@@@###################################################@      ",
"       OOOOOOOO@@@@@@####@######@@@@@@@@@@@@@@@@@@@@@@@@@@@@@@###################################################@      ",
"       OOOOOOOO@@@@@@####@######@@@@@@@@@@@@@@@@@@@@@@@@@@@@@####################################################@      ",
"       OOOOOOOOO@@@@@###@@@######@@@@@@@@@@@@@@@@@@@@@@@@@@OO####################################################@      ",
"        OOOOOOOO@@@@@@@#@@@######@@@@@@@@@@@@@@@@@@@@@@@@@@OO####################################################@      ",
"         OOOOOOOO@@@@@@@@@@######@@@@@@@@@@@@@@@@@@@@@@@@@@OO################################################O###@      ",
"        OOOOOOOOO@@@@@@@@@@@######@@@@@@@@@@@@@@@@@@@@@@@@#OOO###############################################O###@      ",
"        OOOOOOOOOO@@@@@@@@@@@@####@@@@@@@@@@@@@@@@@@@@@@@##OOOO##############################################O###@      ",
"        OOOOOOOOOO@@@@@@@@@@@@@@@#@@@@@@@@@@@@@@@@@@@@@@####OOO##############################################O####@     ",
"        OOOOOOOOOO@@@@@@@@@@@@@@@@@@@@@@@@@@@@@@@@@@@@######OOOO#############################################O###@@     ",
"        OOOOOOOOOOO@@@@@@@@@@@@@@@@@@@@@@@@@@@@@@@@@@#######OOOOO############################################O##@@@     ",
"          OOOOOOOOOO@@@@@@@@@@@@@@@@@@@@@@@@@@@@@@@@########OOOOOO###########################################O#@@@@     ",
"           OOOOOOOOO@@@@@@@@@@@@@@@@@@@@@@@@@@@@@@##########OOOOOO##########################################OO@@@@@     ",
"            OOOOOOOOO@@@@@@@@@@@@@@@@@@@@@@@@@@@############OOOOOOO#########################################OOO@@@@     ",
"            OOOOOOOOOOOOOO@@@@@@@@@@@@@@@@@@@@@#############OOOOOOO########################################OOOO@@@@     ",
"            OOOOOOOOOOO@OOOO@@@@@@@@@@@@@@@@@@##############OOOOOOOO######################################OOOOO@@@@     ",
"                 OOOOOOOOOOOOO@@@@@O@@@@@@@#################OOOOOOOO#####################OO###############OOOOO@@@@     ",
"                  OOOOOOOOOOOOOOOO@@OO@@@###################OOOOOOOO#####################OO##############OOOOOO@@       ",
"                  OOOOOOOOOOOOOOO@OOOOO#O####################OOOOOOOO####################OO#############OOOOOOOO@       ",
"                   OOOOOOOOOOOOOOOOO#OOOO#OO#################OOOOOOOOO##################OOO###########OOOOOOOOOOO       ",
"                   OO            @   OOOOOOO###########OOOOOOOOOOOOOOOOO###############OOOOO#########OOOOOOOOOOOO       ",
"                                    #OOOOOOO#####OOOOOOOOOOOOOOOOOOOOOOOOOOO#########OOOOOO########OOOOOOOOOOOOOO       ",
"                                     #ooOOOOO####OOOOOO#    #OOOOOOOOO.oOOOOO#######OOOOOOO#######OOOOOOOOOOOOOOO       ",
"                               O#     oo+OOOOOOOO...oo...             o.XOOOOO#####OOOOOOOO######OOOOOOOOOOOOOOOO       ",
"                               OO     oo+++OOOOOoooooooo...           o.XXXOOOOOOOOOOOOOOOO####OOOOOOOOOOOOOOOOO        ",
"                                      ooo+oXOXXXooooooooo...         .oXXXXXOOOOOOOOOOOOOOO###OOOOOOOOOOOOOOO           ",
"                                      .oooooXXXXXXXoooooooo...       o.XXXXXXXXOOOOOOOOOOOO#OOOOOOOOOOOOOOOO            ",
"                                       oooooooXXXXXXXXooooooo..     .oXXXXXXXX.. OOOOOOOOOOOOOOOOOOOOOOOOOOO            ",
"                                        .ooooooooooXXXXoooooooo.   .o.XXXXXX..    OOOOOOOOOOOOOOOOOOOOOOOOOO            ",
"                                         ..oooooooooooXXooooooooooooXXXXXXooo.     OOOOOOOOOOOOOOOOOOOOOOOOO            ",
"                                          .....ooooooooXXXXXoooooo.XXXXXXooo..              OOOOOOOOOOOOOOO             ",
"                                            .   ooooooooXXXXoooooXXXXXXXooo..                   OOOOOOOOOO              ",
"                                                   oooooooooooXXXXXXXXXoooo                                             ",
"                                                    .oooooooXXXXXXXXXXooo.                                              ",
"                                                      .oooXXXXXXXXXXXXoo.              #                                ",
"                                                      .ooXXXXXXXXXXXXXo..     O       ##O         #OO##                 ",
"                                          OO           .ooXXXXXXXXXXX.o..     #O      OOO                               ",
"                                          O#            ooXXXXXXXoooooo..     #O                                        ",
"                                          O#            .ooXXXXXooooooo..     #O                                        ",
"                                          O             oooXXXXooooooooo.      OO                                       ",
"                                                        ooXXXXoooooooooooo                                              ",
"                                                        ooXXXooooooooooooo                                              ",
"                                                        ooXXooooooooooooo.                                              ",
"                                                        ooXooooooooooooo.                                               ",
"                                                        .oXooooooXooooo.                                                ",
"                                                        .oXoooooXXoooo..     ##                                         ",
"                                                       ..oXooooXXXoooo.      O                                          ",
"                                                       ..oXooooXXXoooo.      O                                          ",
"                                                      .oooXXXXXXXXooo.                                                  ",
"                                                     ooooXXoXoXXXXXoo.                                                  ",
"                                                     ooooXXoooooXXX..                                                   ",
"                                                     .oooXXoooooXXX.                                                    ",
"                                                    .ooooXXXooooXXX.                                                    ",
"                                                   ..oooXXXXoooooXX.                                                    ",
"                                                  ..ooooXXXXXooooXX.                                                    ",
"                                                  .ooooXXXXXXooooX.                                                     ",
"                                           O#     oooooXXXXXXooooooo                                                    ",
"                                           OOO    ooooXXXXXXXXo..o.                                                     ",
"                                                  ooooXXXXXXXXoooo.                                                     ",
"                                                  oooooXXXXXXooooo.                                                     ",
"                                                 oooooooXXXooooooo.                                                     ",
"                                                 ooooooooooooooooo.                                                     ",
"                                                oooXoooXooooooo@oo.                                                     ",
"                                       @@  @@  @@o@X@@o@XXXXXoo@o@.@@@@ @                                               ",
"                                      @@@ @@@@@@o@@Xo@@@X@@@@X@oo@@@@@ @@  @@                                           ",
"                                      @@@@@@@@@@@@@@@@X@@@@@@@@@@@o@@  @@@@                                             "
};
