/* XPM */
static char *ea6a6503c4524c19f33c47a68e736861sf7XcwiHzl16Nt5c[] = {
/* columns rows colors chars-per-pixel */
"48 48 11 1 ",
"  c None",
". c black",
"X c #1F3C36",
"o c #212924",
"O c #472721",
"+ c #663931",
"@ c #744334",
"# c #616665",
"$ c #70716B",
"% c #AD8D7D",
"& c #99928F",
/* pixels */
"               .................                ",
"              .+++++++++++++++++.               ",
"              .+++++++++++++++++.               ",
"              .+++++++++++++++++.               ",
"              .+++++++++++++++++.               ",
"              .+++++++++++++++++.               ",
"              .OOOOOOOOOOOOOOOOO.               ",
"               ..+............+..               ",
"              .+.+.++++O%O%++.+.+.              ",
"             .++.+.++++O%O%++.+.+.              ",
"             .+..+............+..               ",
"             .+..+.   .%.    .+.                ",
"             .+..+.  .....   .+.                ",
"           ...+..+.  .O+@.   .+.                ",
"           .+++..+.  ..o$.   .+.                ",
"           .... .+.  .O+@.   .+.                ",
"                .+.   ...    .+.                ",
"                .+.          .+.                ",
"                .+. XXXXXXX  .+.                ",
"                .+XX&&&&&&&XX.+.                ",
"                .X&&.......&&XX.                ",
"                .&&.........&&X.                ",
"                .X&&.......&&XX.                ",
"                .&X&&&&&&&&&XX&.                ",
"                .&#XXXXXXXXXX&#.                ",
"                .##&&#&&&#&&&&#.                ",
"                .&##&#&&&#&&###.                ",
"                .&#############.                ",
"                .##&&#&&#####&&.                ",
"                 .#&&#&&&#&&#&.                 ",
"                 ....#&&&#&...                  ",
"                    .......                     ",
"                                                ",
"                                                ",
"                                                ",
"                                                ",
"                                                ",
"                                                ",
"                                                ",
"                                                ",
"                                                ",
"                                                ",
"                                                ",
"                                                ",
"                                                ",
"                                                ",
"                                                ",
"                                                "
};
